<svg width="240" height="68" viewBox="0 0 240 68" fill="none" xmlns="http://www.w3.org/2000/svg">
<path d="M79.7273 14.5455V32H77.6136V14.5455H79.7273ZM97.8061 14.5455V32H95.7607L86.2493 18.2955H86.0788V32H83.9652V14.5455H86.0107L95.5561 28.2841H95.7266V14.5455H97.8061ZM104.149 14.5455V32H102.036V14.5455H104.149ZM122.433 20H120.319C120.194 19.392 119.975 18.858 119.663 18.3977C119.356 17.9375 118.981 17.5511 118.538 17.2386C118.1 16.9205 117.614 16.6818 117.08 16.5227C116.546 16.3636 115.989 16.2841 115.41 16.2841C114.353 16.2841 113.396 16.5511 112.538 17.0852C111.685 17.6193 111.006 18.4062 110.501 19.446C110.001 20.4858 109.751 21.7614 109.751 23.2727C109.751 24.7841 110.001 26.0597 110.501 27.0994C111.006 28.1392 111.685 28.9261 112.538 29.4602C113.396 29.9943 114.353 30.2614 115.41 30.2614C115.989 30.2614 116.546 30.1818 117.08 30.0227C117.614 29.8636 118.1 29.6278 118.538 29.3153C118.981 28.9972 119.356 28.608 119.663 28.1477C119.975 27.6818 120.194 27.1477 120.319 26.5455H122.433C122.273 27.4375 121.984 28.2358 121.563 28.9403C121.143 29.6449 120.62 30.2443 119.995 30.7386C119.37 31.2273 118.668 31.5994 117.89 31.8551C117.117 32.1108 116.29 32.2386 115.41 32.2386C113.921 32.2386 112.597 31.875 111.438 31.1477C110.279 30.4205 109.367 29.3864 108.702 28.0455C108.038 26.7045 107.705 25.1136 107.705 23.2727C107.705 21.4318 108.038 19.8409 108.702 18.5C109.367 17.1591 110.279 16.125 111.438 15.3977C112.597 14.6705 113.921 14.3068 115.41 14.3068C116.29 14.3068 117.117 14.4347 117.89 14.6903C118.668 14.946 119.37 15.321 119.995 15.8153C120.62 16.304 121.143 16.9006 121.563 17.6051C121.984 18.304 122.273 19.1023 122.433 20ZM127.962 14.5455V32H125.848V14.5455H127.962ZM146.927 23.2727C146.927 25.1136 146.594 26.7045 145.93 28.0455C145.265 29.3864 144.353 30.4205 143.194 31.1477C142.035 31.875 140.711 32.2386 139.222 32.2386C137.734 32.2386 136.41 31.875 135.251 31.1477C134.092 30.4205 133.18 29.3864 132.515 28.0455C131.85 26.7045 131.518 25.1136 131.518 23.2727C131.518 21.4318 131.85 19.8409 132.515 18.5C133.18 17.1591 134.092 16.125 135.251 15.3977C136.41 14.6705 137.734 14.3068 139.222 14.3068C140.711 14.3068 142.035 14.6705 143.194 15.3977C144.353 16.125 145.265 17.1591 145.93 18.5C146.594 19.8409 146.927 21.4318 146.927 23.2727ZM144.881 23.2727C144.881 21.7614 144.629 20.4858 144.123 19.446C143.623 18.4062 142.944 17.6193 142.086 17.0852C141.234 16.5511 140.279 16.2841 139.222 16.2841C138.165 16.2841 137.208 16.5511 136.35 17.0852C135.498 17.6193 134.819 18.4062 134.313 19.446C133.813 20.4858 133.563 21.7614 133.563 23.2727C133.563 24.7841 133.813 26.0597 134.313 27.0994C134.819 28.1392 135.498 28.9261 136.35 29.4602C137.208 29.9943 138.165 30.2614 139.222 30.2614C140.279 30.2614 141.234 29.9943 142.086 29.4602C142.944 28.9261 143.623 28.1392 144.123 27.0994C144.629 26.0597 144.881 24.7841 144.881 23.2727Z" fill="#FCEDED"/>
<path d="M240 32.3636C240 49.8359 180.76 64 123.243 64C65.726 64 0 49.8359 0 32.3636C0 14.8914 65.726 0 123.243 0C180.76 0 240 14.8914 240 32.3636Z" fill="#FFD800"/>
<path d="M78.54 45H70.44V44.712C70.44 43.392 70.968 42.684 72.024 42.588L73.068 42.516V22.896H73.032L70.476 22.68C70.404 22.536 70.416 22.212 70.512 21.708C70.728 20.796 71.256 20.34 72.096 20.34H80.196V20.628C80.196 21.948 79.668 22.656 78.612 22.752L77.568 22.824V42.444H77.604L80.16 42.66C80.304 44.22 79.764 45 78.54 45ZM102.681 45H94.7251V44.712C94.7251 43.392 95.2531 42.684 96.3091 42.588L97.3531 42.516V33.66C97.3531 32.268 97.0771 31.296 96.5251 30.744C95.9731 30.168 95.2051 29.88 94.2211 29.88C93.2371 29.88 92.4331 30.012 91.8091 30.276C91.1851 30.54 90.5371 30.96 89.8651 31.536V42.444L92.4211 42.66C92.5651 44.22 92.0251 45 90.8011 45H82.7731V44.712C82.7731 43.392 83.3011 42.684 84.3571 42.588L85.4731 42.516V29.664L84.0691 29.52C83.0851 29.424 82.6411 28.68 82.7371 27.288L89.2531 26.496L89.5051 28.692H89.6131C90.5011 27.924 91.3531 27.336 92.1691 26.928C93.0091 26.496 93.9931 26.28 95.1211 26.28C96.9691 26.28 98.5291 26.904 99.8011 28.152C101.097 29.376 101.745 31.272 101.745 33.84V42.444L104.301 42.66C104.445 44.22 103.905 45 102.681 45ZM114.18 45H106.152V44.712C106.152 43.392 106.68 42.684 107.736 42.588L108.852 42.516V29.448L107.448 29.304C106.464 29.208 106.02 28.464 106.116 27.072L113.244 26.28V42.444L115.8 42.66C115.944 44.22 115.404 45 114.18 45ZM113.424 21.996C113.424 22.74 113.172 23.376 112.668 23.904C112.164 24.408 111.528 24.66 110.76 24.66C110.016 24.66 109.38 24.408 108.852 23.904C108.348 23.376 108.096 22.74 108.096 21.996C108.096 21.252 108.348 20.628 108.852 20.124C109.38 19.596 110.016 19.332 110.76 19.332C111.504 19.332 112.128 19.596 112.632 20.124C113.16 20.628 113.424 21.252 113.424 21.996ZM126.72 26.28C128.448 26.28 129.852 26.652 130.932 27.396C132.036 28.116 132.588 29.04 132.588 30.168C132.588 31.296 132.252 32.088 131.58 32.544C130.908 33 130.2 33.18 129.456 33.084C129.432 32.052 129.156 31.152 128.628 30.384C128.1 29.616 127.248 29.232 126.072 29.232C124.92 29.232 124.008 29.796 123.336 30.924C122.664 32.028 122.328 33.588 122.328 35.604C122.328 40.068 124.044 42.3 127.476 42.3C129.084 42.3 130.62 41.652 132.084 40.356C132.324 40.5 132.516 40.74 132.66 41.076C132.804 41.412 132.876 41.7 132.876 41.94C132.876 42.708 132.168 43.5 130.752 44.316C129.36 45.132 127.752 45.54 125.928 45.54C123.384 45.54 121.38 44.724 119.916 43.092C118.476 41.436 117.756 39.12 117.756 36.144C117.756 33.168 118.572 30.78 120.204 28.98C121.836 27.18 124.008 26.28 126.72 26.28ZM142.657 45H134.629V44.712C134.629 43.392 135.157 42.684 136.213 42.588L137.329 42.516V29.448L135.925 29.304C134.941 29.208 134.497 28.464 134.593 27.072L141.721 26.28V42.444L144.277 42.66C144.421 44.22 143.881 45 142.657 45ZM141.901 21.996C141.901 22.74 141.649 23.376 141.145 23.904C140.641 24.408 140.005 24.66 139.237 24.66C138.493 24.66 137.857 24.408 137.329 23.904C136.825 23.376 136.573 22.74 136.573 21.996C136.573 21.252 136.825 20.628 137.329 20.124C137.857 19.596 138.493 19.332 139.237 19.332C139.981 19.332 140.605 19.596 141.109 20.124C141.637 20.628 141.901 21.252 141.901 21.996ZM157.609 30.96C156.937 29.688 155.977 29.052 154.729 29.052C153.481 29.052 152.509 29.676 151.813 30.924C151.141 32.172 150.805 33.876 150.805 36.036C150.805 38.172 151.141 39.84 151.813 41.04C152.509 42.216 153.481 42.804 154.729 42.804C155.977 42.804 156.937 42.228 157.609 41.076C158.305 39.9 158.653 38.244 158.653 36.108C158.653 33.948 158.305 32.232 157.609 30.96ZM146.233 36.216C146.233 33.144 146.989 30.72 148.501 28.944C150.037 27.168 152.161 26.28 154.873 26.28C157.585 26.28 159.649 27.132 161.065 28.836C162.505 30.54 163.225 32.904 163.225 35.928C163.225 38.928 162.457 41.28 160.921 42.984C159.385 44.688 157.237 45.54 154.477 45.54C151.741 45.54 149.677 44.748 148.285 43.164C146.917 41.58 146.233 39.264 146.233 36.216Z" fill="black"/>
</svg>
